<svg t="1704709583402" class="icon" viewBox="0 0 1024 1024" version="1.1" xmlns="http://www.w3.org/2000/svg" p-id="38711" width="32" height="32"><path d="M454.208 86.4H103.232a18.56 18.56 0 0 0-18.496 18.56v350.976c0 10.176 8.32 18.496 18.496 18.496h350.976a18.56 18.56 0 0 0 18.496-18.496V104.896a18.56 18.56 0 0 0-18.496-18.432zM394.24 395.968H163.264V164.992h230.912v230.912z m521.92-309.44H565.056a18.56 18.56 0 0 0-18.432 18.432v351.04c0 10.176 8.32 18.496 18.432 18.496h351.04a18.56 18.56 0 0 0 18.432-18.496V104.896a18.56 18.56 0 0 0-18.432-18.432z m-60.032 309.44H625.088V164.992h230.976v230.912zM454.208 548.288H103.232a18.56 18.56 0 0 0-18.496 18.496v351.04c0 10.112 8.32 18.432 18.496 18.432h350.976a18.56 18.56 0 0 0 18.496-18.432V566.784a18.56 18.56 0 0 0-18.496-18.496z m-60.032 309.44H163.264V626.816h230.912v230.912zM901.248 719.104a18.752 18.752 0 0 1 8.576-17.664l21.376-12.352a11.968 11.968 0 0 0 4.416-16.192l-40.64-70.208a11.968 11.968 0 0 0-16.192-4.352l-21.376 12.352a19.008 19.008 0 0 1-19.584-1.28s-5.76-4.48-13.952-9.216c-8.32-4.8-15.232-7.68-15.232-7.68a19.072 19.072 0 0 1-11.008-16.32v-24.704a11.84 11.84 0 0 0-11.84-11.776h-81.088a11.84 11.84 0 0 0-11.776 11.776v24.704a18.944 18.944 0 0 1-11.008 16.32s-7.04 2.752-15.296 7.552c-8.32 4.8-14.08 9.28-14.08 9.28a19.008 19.008 0 0 1-19.584 1.28l-21.376-12.288a11.776 11.776 0 0 0-16.192 4.352l-40.576 70.208a11.776 11.776 0 0 0 4.352 16.192l21.376 12.352c5.76 3.328 9.6 11.264 8.64 17.664 0 0-1.088 7.168-1.088 16.832 0 9.792 1.088 16.96 1.088 16.96a18.752 18.752 0 0 1-8.64 17.664l-21.376 12.352a11.968 11.968 0 0 0-4.352 16.192l40.576 70.144c3.328 5.76 10.624 7.552 16.192 4.416l21.376-12.352a19.008 19.008 0 0 1 19.648 1.28s5.12 4.16 13.248 8.768c8.512 5.12 16 8.128 16 8.128 6.144 2.56 11.072 9.792 11.072 16.32v24.832c0 6.464 5.312 11.776 11.776 11.776h81.088a11.84 11.84 0 0 0 11.84-11.776v-24.704c0-6.528 4.864-13.952 11.008-16.32 0 0 6.848-2.816 15.104-7.552 8.32-4.8 14.08-9.28 14.08-9.28a19.008 19.008 0 0 1 19.584-1.344l21.376 12.352c5.76 3.328 12.992 1.28 16.192-4.416l40.64-70.144a11.776 11.776 0 0 0-4.416-16.192l-21.376-12.352a19.008 19.008 0 0 1-8.576-17.664c0-0.128 1.024-7.168 1.024-17.088 0-9.856-1.024-16.832-1.024-16.832z m-156.16 111.488a94.592 94.592 0 1 1-0.128-189.248 94.592 94.592 0 0 1 0.128 189.248z" p-id="38712"></path></svg>