<svg t="1704793034642" class="icon" viewBox="0 0 1024 1024" version="1.1" xmlns="http://www.w3.org/2000/svg" p-id="9985" width="32" height="32"><path d="M934.3 237.7C822 243.3 824.7 461.4 797.5 539.5c-35.1 100.9-122.4 187.1-239.9 152.3-100.1-29.6-165.9-223-287.9-149.6-83.6 50.3-125.5 160.2-145.8 251.8-0.2 0.9-0.6 1.7-0.8 2.5L123.1 891l780 0c17.2 0 31.2 14 31.2 31.2 0 17.2-14 31.2-31.2 31.2L91.9 953.4c-17.2 0-31.2-14-31.2-31.2L60.7 111c0-17.2 14-31.2 31.2-31.2s31.2 14 31.2 31.2l0 505.2c22.5-40.9 50.4-78.3 85.2-107.4 105.9-88.3 216.1-25.8 289.6 64.2 46.5 57 137.5 94.5 197.2 27.7 46.2-51.6 56.8-127.3 70.3-192.8 20.5-99.5 45.6-226.5 168.8-232.6C974.5 173.3 974.3 235.7 934.3 237.7z" p-id="9986"></path></svg>