<?xml version="1.0" standalone="no"?>
<!DOCTYPE svg PUBLIC "-//W3C//DTD SVG 20010904//EN"
 "http://www.w3.org/TR/2001/REC-SVG-20010904/DTD/svg10.dtd">
<svg version="1.0" xmlns="http://www.w3.org/2000/svg"
 width="990.000000pt" height="990.000000pt" viewBox="0 0 990.000000 990.000000"
 preserveAspectRatio="xMidYMid meet">

<g transform="translate(0.000000,990.000000) scale(0.100000,-0.100000)" stroke="none">
<path d="M4410 8609 c-1320 -44 -2298 -180 -2830 -394 -183 -73 -418 -209
-595 -344 -84 -64 -266 -242 -337 -330 -361 -449 -540 -1039 -610 -2011 -19
-274 -16 -1042 5 -1270 64 -679 201 -1179 435 -1592 187 -330 465 -609 751
-752 535 -269 1271 -415 2416 -481 394 -22 935 -36 1380 -34 2013 9 3188 199
3815 616 140 94 323 271 432 419 322 436 513 1029 583 1814 34 380 30 1024
-11 1490 -62 726 -220 1264 -485 1656 -169 250 -414 477 -700 648 -284 169
-553 266 -974 351 -816 163 -2163 252 -3275 214z m1283 -769 c955 -43 1699
-147 2129 -296 340 -119 661 -342 840 -584 183 -249 321 -612 388 -1022 88
-542 93 -1407 9 -1933 -80 -505 -250 -899 -499 -1155 -216 -222 -566 -390
-1030 -494 -608 -136 -1696 -209 -2860 -192 -1378 20 -2206 117 -2738 322
-434 167 -678 382 -863 759 -78 161 -117 266 -164 451 -84 327 -125 715 -125
1194 0 648 56 1120 175 1489 156 482 364 756 755 991 194 117 359 182 634 250
531 130 1192 199 2261 234 166 6 850 -3 1088 -14z"/>
<path d="M2610 5010 l0 -1230 385 0 385 0 0 1230 0 1230 -385 0 -385 0 0
-1230z"/>
<path d="M6450 5625 l-615 -615 618 -617 617 -618 270 270 269 270 -340 348
-341 347 340 348 341 347 -267 268 c-147 147 -269 267 -272 267 -3 0 -282
-277 -620 -615z"/>
</g>
</svg>
