<svg t="1704709215987" class="icon" viewBox="0 0 1024 1024" version="1.1" xmlns="http://www.w3.org/2000/svg" p-id="36732" width="32" height="32"><path d="M277.333333 42.666667a42.666667 42.666667 0 0 1 37.205334 21.76l192 341.333333A42.666667 42.666667 0 0 1 469.333333 469.333333H85.333333a42.666667 42.666667 0 0 1-37.205333-63.573333l192-341.333333A42.666667 42.666667 0 0 1 277.333333 42.666667zM554.666667 597.333333a42.666667 42.666667 0 0 1 42.666666-42.666666h341.333334a42.666667 42.666667 0 0 1 42.666666 42.666666v341.333334a42.666667 42.666667 0 0 1-42.666666 42.666666h-341.333334a42.666667 42.666667 0 0 1-42.666666-42.666666v-341.333334zM554.666667 256a213.333333 213.333333 0 1 1 426.666666 0 213.333333 213.333333 0 0 1-426.666666 0zM55.168 567.168a42.666667 42.666667 0 0 1 60.330667 0L256 707.669333l140.501333-140.501333a42.666667 42.666667 0 0 1 60.330667 60.330667L316.330667 768l140.501333 140.501333a42.666667 42.666667 0 0 1-60.330667 60.330667L256 828.330667l-140.501333 140.501333a42.666667 42.666667 0 0 1-60.330667-60.330667L195.669333 768l-140.501333-140.501333a42.666667 42.666667 0 0 1 0-60.330667z" fill-opacity=".85" p-id="36733"></path></svg>