<?xml version="1.0" standalone="no"?><!DOCTYPE svg PUBLIC "-//W3C//DTD SVG 1.1//EN" "http://www.w3.org/Graphics/SVG/1.1/DTD/svg11.dtd"><svg t="1703841789843" class="icon" viewBox="0 0 1024 1024" version="1.1" xmlns="http://www.w3.org/2000/svg" p-id="20459" xmlns:xlink="http://www.w3.org/1999/xlink" width="200" height="200"><path d="M499.2 953.6H185.6c-51.2 0-89.6-38.4-96-89.6 0-19.2 6.4-44.8 25.6-57.6 19.2-19.2 38.4-25.6 64-25.6h198.4c19.2 0 32-12.8 32-32s-12.8-32-32-32H179.2c-32 0-64 12.8-89.6 25.6V160c0-51.2 44.8-96 96-96h691.2v390.4c0 19.2 12.8 32 32 32s32-12.8 32-32V32c0-19.2-12.8-32-32-32H185.6C96 0 25.6 70.4 25.6 160v710.4c0 83.2 70.4 153.6 153.6 153.6h320c19.2 0 32-12.8 32-32s-12.8-38.4-32-38.4z" p-id="20460" fill="#707070"></path><path d="M992 966.4l-83.2-83.2c70.4-96 64-230.4-19.2-313.6-96-96-249.6-96-339.2 0-96 96-96 243.2 0 339.2 44.8 44.8 108.8 70.4 172.8 70.4 51.2 0 102.4-19.2 147.2-51.2l83.2 83.2c-6.4 12.8 6.4 12.8 12.8 12.8s19.2 0 25.6-6.4c6.4-12.8 6.4-38.4 0-51.2z m-403.2-102.4c-70.4-70.4-70.4-179.2 0-249.6 32-32 76.8-51.2 128-51.2 44.8 0 89.6 19.2 128 51.2 70.4 70.4 70.4 179.2 0 249.6s-185.6 70.4-256 0zM288 262.4c-19.2 0-32 12.8-32 32s12.8 32 32 32h390.4c19.2 0 32-12.8 32-32s-12.8-32-32-32H288z" p-id="20461"></path></svg>