<?xml version="1.0" standalone="no"?><!DOCTYPE svg PUBLIC "-//W3C//DTD SVG 1.1//EN" "http://www.w3.org/Graphics/SVG/1.1/DTD/svg11.dtd"><svg t="1703841743689" class="icon" viewBox="0 0 1024 1024" version="1.1" xmlns="http://www.w3.org/2000/svg" p-id="18567" xmlns:xlink="http://www.w3.org/1999/xlink" width="200" height="200"><path d="M804.483936 165.619038l-409.322479 0c-56.516178 0-102.33062 45.814442-102.33062 102.33062l0 20.466124c0 14.129812 11.453866 25.582655 25.582655 25.582655s25.582655-11.452843 25.582655-25.582655c0-39.561018 32.070416-71.631434 71.631434-71.631434l368.390231 0c39.561018 0 71.631434 32.070416 71.631434 71.631434l0 163.728992c0 39.561018-32.070416 71.631434-71.631434 71.631434l0 0.00921c-13.970176 0.183172-25.241894 11.559267-25.241894 25.574469s11.271718 25.390273 25.241894 25.572422l0 0.00921 20.466124 0c56.516178 0 102.33062-45.814442 102.33062-102.33062l0-204.66124C906.814556 211.43348 861.000114 165.619038 804.483936 165.619038zM318.413492 538.605961m-25.582655 0a25 25 0 1 0 51.16531 0 25 25 0 1 0-51.16531 0ZM420.744111 538.605961m-25.582655 0a25 25 0 1 0 51.16531 0 25 25 0 1 0-51.16531 0ZM523.074731 538.605961m-25.582655 0a25 25 0 1 0 51.16531 0 25 25 0 1 0-51.16531 0ZM627.97385 333.944721l-409.322479 0c-56.516178 0-102.33062 45.814442-102.33062 102.33062l0 204.66124c0 56.516178 45.814442 102.33062 102.33062 102.33062l180.827415 0 202.083531 147.931191c0.069585 0.051165 0.14224 0.097214 0.211824 0.147356 0.174985 0.124843 0.353041 0.24764 0.532119 0.36839 0.179079 0.121773 0.35918 0.242524 0.539282 0.360204 0.155543 0.101307 0.316202 0.197498 0.475837 0.295735 0.207731 0.127913 0.416486 0.255827 0.627287 0.375553 0.12689 0.072655 0.25685 0.143263 0.385786 0.213871 0.24457 0.135076 0.48914 0.270153 0.738827 0.396019 0.094144 0.048095 0.190335 0.094144 0.285502 0.141216 0.281409 0.140193 0.564865 0.277316 0.851391 0.405229 0.066515 0.029676 0.134053 0.058328 0.202615 0.086981 0.313132 0.137123 0.62831 0.272199 0.945535 0.397043 0.055259 0.021489 0.10847 0.039909 0.163729 0.061398 0.330528 0.12689 0.661056 0.249687 0.9967 0.36225 0.070608 0.022513 0.14224 0.042979 0.212848 0.066515 0.319272 0.105401 0.635473 0.204661 0.956791 0.295735 0.125867 0.035816 0.252757 0.064468 0.378623 0.099261 0.267083 0.071631 0.533143 0.144286 0.802272 0.206708 0.199545 0.045025 0.403183 0.083911 0.604774 0.125867 0.196475 0.041956 0.393973 0.085958 0.590448 0.12075 0.265036 0.049119 0.533143 0.088004 0.800225 0.128937 0.135076 0.019443 0.272199 0.044002 0.408299 0.063445 0.296759 0.038886 0.597611 0.069585 0.89744 0.098237 0.109494 0.01228 0.220011 0.026606 0.328481 0.034792 0.298805 0.024559 0.598634 0.040932 0.89744 0.055259 0.115634 0.007163 0.233314 0.01535 0.347924 0.019443 0.278339 0.010233 0.557702 0.01228 0.837064 0.01228 0.14224 0.001023 0.283456 0.00307 0.425695 0.002047 0.24764-0.004093 0.497327-0.01535 0.747014-0.026606 0.177032-0.008186 0.354064-0.013303 0.531096-0.024559 0.216941-0.013303 0.434905-0.032746 0.652869-0.054235 0.211824-0.01842 0.423649-0.036839 0.635473-0.060375 0.191358-0.022513 0.382717-0.050142 0.576121-0.076748 0.236384-0.031722 0.471744-0.065492 0.708128-0.106424 0.075725-0.01228 0.151449-0.020466 0.228197-0.032746 0.105401-0.019443 0.206708-0.042979 0.313132-0.063445 0.236384-0.045025 0.473791-0.092098 0.711198-0.143263 0.187265-0.040932 0.37146-0.083911 0.556679-0.127913 0.217964-0.053212 0.435928-0.107447 0.652869-0.165776 0.199545-0.054235 0.399089-0.109494 0.596588-0.167822 0.195451-0.057305 0.390903-0.11768 0.585331-0.180102 0.211824-0.067538 0.422625-0.138146 0.632403-0.210801 0.178055-0.062422 0.354064-0.127913 0.530073-0.192382 0.218988-0.081864 0.435928-0.164752 0.650823-0.251733 0.168846-0.067538 0.335644-0.140193 0.50142-0.211824 0.216941-0.094144 0.430812-0.186242 0.642636-0.284479 0.168846-0.078795 0.335644-0.161682 0.502443-0.243547 0.203638-0.099261 0.405229-0.198521 0.604774-0.303922 0.180102-0.093121 0.358157-0.192382 0.535189-0.291642 0.181125-0.100284 0.361227-0.198521 0.537236-0.302899 0.194428-0.11461 0.38681-0.23536 0.580215-0.356111 0.154519-0.096191 0.308015-0.192382 0.459464-0.290619 0.209778-0.137123 0.414439-0.278339 0.621147-0.422625 0.128937-0.091074 0.25992-0.181125 0.387833-0.274246 0.216941-0.156566 0.430812-0.320295 0.64366-0.485047 0.112564-0.088004 0.227174-0.173962 0.336668-0.26299 0.214894-0.172939 0.425695-0.350994 0.636496-0.531096 0.106424-0.091074 0.211824-0.180102 0.315178-0.273223 0.203638-0.180102 0.403183-0.36532 0.601704-0.552585 0.106424-0.101307 0.214894-0.201591 0.320295-0.305969 0.186242-0.181125 0.36839-0.367367 0.550539-0.555655 0.112564-0.11768 0.226151-0.236384 0.337691-0.358157 0.165776-0.179079 0.327458-0.361227 0.490164-0.544399 0.12075-0.13917 0.2415-0.279363 0.360204-0.420579 0.146333-0.176009 0.290619-0.352017 0.431835-0.532119 0.125867-0.156566 0.248663-0.318248 0.369414-0.477884 0.077771-0.103354 0.159636-0.200568 0.234337-0.305969 0.056282-0.074701 0.106424-0.153496 0.160659-0.231267 0.11461-0.159636 0.226151-0.322341 0.337691-0.485047 0.12996-0.193405 0.260943-0.385786 0.385786-0.581238 0.092098-0.144286 0.182149-0.290619 0.271176-0.435928 0.1361-0.220011 0.271176-0.440022 0.399089-0.663102 0.066515-0.115634 0.128937-0.234337 0.194428-0.352017 0.141216-0.254803 0.279363-0.509606 0.411369-0.76748 0.045025-0.086981 0.084934-0.174985 0.128937-0.26299 0.143263-0.288572 0.283456-0.578168 0.415462-0.87288 0.027629-0.061398 0.052189-0.121773 0.078795-0.183172 0.13917-0.320295 0.276293-0.64059 0.404206-0.963954 0.020466-0.051165 0.036839-0.104377 0.058328-0.154519 0.12689-0.332575 0.25071-0.665149 0.36225-1.001817 0.025583-0.074701 0.048095-0.151449 0.071631-0.226151 0.102331-0.314155 0.201591-0.62524 0.290619-0.940418 0.038886-0.137123 0.071631-0.277316 0.10847-0.415462 0.067538-0.25378 0.138146-0.508583 0.196475-0.765433 0.050142-0.215918 0.092098-0.434905 0.138146-0.652869 0.035816-0.179079 0.075725-0.35918 0.109494-0.540306 0.052189-0.284479 0.094144-0.571005 0.137123-0.856507 0.017396-0.116657 0.038886-0.234337 0.054235-0.352017 0.041956-0.315178 0.073678-0.629333 0.105401-0.944512 0.008186-0.095167 0.021489-0.189312 0.028653-0.282433 0.025583-0.313132 0.044002-0.626263 0.058328-0.940418 0.00614-0.101307 0.013303-0.201591 0.016373-0.302899 0.011256-0.292666 0.013303-0.587378 0.013303-0.881067 0-0.125867 0.002047-0.252757 0.001023-0.378623-0.005117-0.26299-0.016373-0.528026-0.027629-0.789992-0.007163-0.161682-0.01228-0.323365-0.021489-0.487094-0.01535-0.231267-0.035816-0.462534-0.058328-0.693802-0.017396-0.197498-0.033769-0.394996-0.056282-0.592494-0.024559-0.204661-0.054235-0.408299-0.080841-0.615007-0.030699-0.223081-0.064468-0.446162-0.100284-0.666172-0.014326-0.081864-0.022513-0.163729-0.036839-0.245593l-21.520129-122.873492 7.621585 0c56.516178 0 102.33062-45.814442 102.33062-102.33062l0-204.66124C730.30447 379.760187 684.489004 333.944721 627.97385 333.944721zM679.13916 620.470457c0 39.561018-32.070416 71.631434-71.631434 71.631434L589.816808 692.101891l0 0.001023c-14.129812 0-25.582655 11.453866-25.582655 25.582655 0 2.232854 0.287549 4.39817 0.825808 6.463202l15.452947 88.231507L425.356153 698.800453c-1.104147-0.808412-2.252297-1.512447-3.431146-2.118244-4.140297-2.882654-9.169847-4.579295-14.598486-4.579295l0-0.001023L239.117494 692.101891c-39.561018 0-71.631434-32.070416-71.631434-71.631434l0-163.728992c0-39.561018 32.070416-71.631434 71.631434-71.631434l368.390231 0c39.561018 0 71.631434 32.070416 71.631434 71.631434L679.13916 620.470457z"  p-id="18568"></path></svg>