<svg t="1715856803291" class="icon" viewBox="0 0 1024 1024" version="1.1" xmlns="http://www.w3.org/2000/svg" p-id="8724" width="64" height="64"><path d="M921.13408 1024H101.93408a68.266667 68.266667 0 0 1-68.266667-68.266667V546.133333h955.733334v409.6a68.266667 68.266667 0 0 1-68.266667 68.266667zM784.600747 341.333333h136.533333a68.266667 68.266667 0 0 1 68.266667 68.266667v68.266667H681.381547zM340.048213 477.866667L443.267413 341.333333h223.163734L563.211947 477.866667H340.048213zM33.667413 477.866667V409.6a68.266667 68.266667 0 0 1 68.266667-68.266667h223.163733L221.878613 477.866667H33.667413z m24.917334-204.049067L943.730347 1.979733a36.0448 36.0448 0 0 1 44.919466 22.3232 34.133333 34.133333 0 0 1-23.210666 43.2128L80.293547 339.3536a35.976533 35.976533 0 0 1-44.919467-22.3232 34.133333 34.133333 0 0 1 23.210667-43.2128z" p-id="8725"></path></svg>
