<?xml version="1.0" standalone="no"?><!DOCTYPE svg PUBLIC "-//W3C//DTD SVG 1.1//EN" "http://www.w3.org/Graphics/SVG/1.1/DTD/svg11.dtd"><svg t="1715399978521" class="icon" viewBox="0 0 1024 1024" version="1.1" xmlns="http://www.w3.org/2000/svg" p-id="21194" xmlns:xlink="http://www.w3.org/1999/xlink" width="600" height="600"><path d="M480.005999 0a319.940011 319.940011 0 0 1 148.644129 603.342873c19.772293 7.550584 38.776729 16.572893 56.949322 26.874961-19.196401 12.861588-36.921077 27.834781-52.85409 44.471662a351.934012 351.934012 0 0 0-504.417421 302.98319L128.071987 991.814035c0.511904 21.499969-9.982128 32.185965-31.610074 32.185965-21.563957 0-32.377929-10.685996-32.377929-32.185965a416.049991 416.049991 0 0 1 267.277886-388.599138A319.940011 319.940011 0 0 1 480.005999 0zM959.916016 959.820034a31.994001 31.994001 0 1 1 0 63.988002H512a31.994001 31.994001 0 1 1 0-63.988002h447.916016z m0-127.976005a31.994001 31.994001 0 1 1 0 63.988002H512a31.994001 31.994001 0 1 1 0-63.988002h447.916016z m0-127.976004a31.994001 31.994001 0 1 1 0 63.988002h-191.964007a31.994001 31.994001 0 1 1 0-63.988002h191.964007zM480.005999 63.988002a255.952009 255.952009 0 1 0 0 511.904018 255.952009 255.952009 0 0 0 0-511.904018z" p-id="21195"></path></svg>